<svg xmlns="http://www.w3.org/2000/svg" width="266.77" height="247.877" viewBox="0 0 266.77 247.877">
  <g id="ads" transform="translate(-312.029 -899.06)">
    <g id="ads-2" data-name="ads">
      <g id="marketing-on-line" transform="translate(317.977 899.979)">
        <path id="Caminho_56" data-name="Caminho 56" d="M251.4,228.955H245.03V90.742a9.435,9.435,0,0,0-9.424-9.424h-2.284a3.821,3.821,0,1,0,0,7.641h2.284a1.785,1.785,0,0,1,1.783,1.783V228.955H23.433V90.742a1.785,1.785,0,0,1,1.783-1.783h41.7l-.2,8.66H35.914a3.821,3.821,0,0,0-3.821,3.821V216.475a3.821,3.821,0,0,0,3.821,3.821H224.908a3.82,3.82,0,0,0,3.821-3.821V101.44a3.82,3.82,0,0,0-3.821-3.821H194.1l-.2-8.66h21.585a3.821,3.821,0,1,0,0-7.641H193.734l-.429-18.987a8.758,8.758,0,0,0-8.7-8.511H166.685V53.5a34.469,34.469,0,1,0-68.939,0v.319H76.223a8.758,8.758,0,0,0-8.705,8.511l-.429,18.988H25.216a9.435,9.435,0,0,0-9.424,9.424V228.955H9.424A9.435,9.435,0,0,0,0,238.379v12.659a9.435,9.435,0,0,0,9.424,9.424H36.638a3.821,3.821,0,1,0,0-7.641H9.424a1.785,1.785,0,0,1-1.783-1.783V238.379A1.785,1.785,0,0,1,9.424,236.6H251.4a1.785,1.785,0,0,1,1.783,1.783v12.659a1.785,1.785,0,0,1-1.783,1.783H54.467a3.821,3.821,0,1,0,0,7.641H251.4a9.435,9.435,0,0,0,9.424-9.424V238.379a9.435,9.435,0,0,0-9.424-9.424ZM194.275,105.261h26.812V212.654H39.735V105.261H66.547c-.035,1.551-2.027,89.68-2.051,90.746v.017a8.718,8.718,0,0,0,8.7,8.9H187.62a8.722,8.722,0,0,0,8.705-8.9ZM105.387,53.5a26.828,26.828,0,1,1,53.656,0v.319H105.387Zm-29.165,7.96H97.745V73.414a3.821,3.821,0,1,0,7.641,0V61.461h53.656V73.414a3.821,3.821,0,1,0,7.641,0V61.461H184.6a1.072,1.072,0,0,1,1.066,1.042c.028,1.245,2.965,131.223,3.021,133.7a1.068,1.068,0,0,1-1.066,1.086H73.2a1.072,1.072,0,0,1-1.066-1.091C72.47,181.357,74.8,78.468,75.156,62.5a1.072,1.072,0,0,1,1.066-1.042Z" transform="translate(0 -19.031)" fill="#fec63e"/>
        <path id="Caminho_57" data-name="Caminho 57" d="M314.057,235.521a6.564,6.564,0,0,1-4.829-2,3.821,3.821,0,1,0-5.662,5.131,14.126,14.126,0,0,0,10.491,4.513c5.153,0,9.487-3.328,10.305-7.913.6-3.333-.9-8.033-7.075-10.31-2.5-.922-4.842-1.922-5.756-2.32-.229-.3-.044-.965.919-1.256,2.521-.759,4.962,1.124,5.064,1.2a3.821,3.821,0,0,0,4.889-5.873c-2.052-1.725-6.923-4.225-12.156-2.648a8.794,8.794,0,0,0-6.356,7.117,8.049,8.049,0,0,0,3.593,7.967c.849.555,6.008,2.552,7.159,2.977,1.391.513,2.294,1.252,2.2,1.8A2.718,2.718,0,0,1,314.057,235.521Z" transform="translate(-148.439 -114.457)" fill="#fec63e"/>
        <path id="Caminho_58" data-name="Caminho 58" d="M180.428,241.847a13.64,13.64,0,0,0,6.227-1.5,3.819,3.819,0,0,0,7.5-1V216.889a3.819,3.819,0,0,0-7.5-1,13.728,13.728,0,1,0-6.227,25.961Zm0-19.819a6.089,6.089,0,1,1-6.089,6.089A6.1,6.1,0,0,1,180.428,222.028Z" transform="translate(-81.779 -114.222)" fill="#fec63e"/>
        <path id="Caminho_59" data-name="Caminho 59" d="M247.249,232.992a14.8,14.8,0,0,0,7.652-2.122,3.818,3.818,0,0,0,7.239-1.7V196.154a3.821,3.821,0,1,0-7.641,0V205.1a14.889,14.889,0,1,0-7.251,27.893Zm0-22.143A7.251,7.251,0,1,1,240,218.1a7.259,7.259,0,0,1,7.251-7.251Z" transform="translate(-113.99 -104.05)" fill="#fec63e"/>
      </g>
      <rect id="Ret창ngulo_37" data-name="Ret창ngulo 37" width="260.823" height="241.435" transform="translate(316.989 899.06)" fill="none"/>
    </g>
    <rect id="Ret창ngulo_38" data-name="Ret창ngulo 38" width="266.77" height="246.94" transform="translate(312.029 899.997)" fill="none"/>
  </g>
</svg>
