<svg xmlns="http://www.w3.org/2000/svg" width="266.77" height="255.673" viewBox="0 0 266.77 255.673">
  <g id="grafic" transform="translate(-1336.241 -899.997)">
    <g id="stats" transform="translate(1348.036 912.49)">
      <g id="Grupo_31" data-name="Grupo 31" transform="translate(0 91.371)">
        <g id="Grupo_30" data-name="Grupo 30">
          <path id="Caminho_48" data-name="Caminho 48" d="M239.611,337.047H216.53v-141.1a3.569,3.569,0,0,0-3.569-3.569H174.89a3.569,3.569,0,0,0-3.569,3.569v141.1H144.195V237.824a3.569,3.569,0,0,0-3.569-3.569H102.555a3.569,3.569,0,0,0-3.569,3.569v99.223H71.86V256.859a3.569,3.569,0,0,0-3.569-3.569H30.219a3.569,3.569,0,0,0-3.569,3.569v80.187H3.569a3.569,3.569,0,0,0,0,7.139H239.611a3.569,3.569,0,1,0,0-7.138Zm-174.89,0H33.788V260.428H64.721v76.618Zm72.336,0H106.124V241.393h30.933Zm72.335,0H178.459V199.515h30.933V337.047Z" transform="translate(0 -192.376)" fill="#fec63e"/>
        </g>
      </g>
      <g id="Grupo_33" data-name="Grupo 33" transform="translate(3.808 0)">
        <g id="Grupo_32" data-name="Grupo 32">
          <path id="Caminho_49" data-name="Caminho 49" d="M235.994,2.8A11.178,11.178,0,0,0,227.2.087L196.748,3.894a11.183,11.183,0,0,0,2.774,22.194l2.485-.31c-37.382,43.343-81.823,65.743-113.226,77-39.156,14.037-69.633,15.238-69.93,15.248a11.183,11.183,0,0,0,.345,22.361c.113,0,.227,0,.343-.005,1.355-.041,33.662-1.182,76.226-16.348a299.944,299.944,0,0,0,66.919-33.642,3.569,3.569,0,0,0-3.989-5.92A292.748,292.748,0,0,1,93.369,117.31c-41.518,14.794-72.738,15.9-74.044,15.937l-.129,0a4.045,4.045,0,0,1-.121-8.088c.312-.01,31.658-1.16,72.114-15.663,33.893-12.15,82.592-36.959,122.125-86.148a3.6,3.6,0,0,0-3.224-5.777L198.639,19a4.045,4.045,0,1,1-1-8.028l30.458-3.807a4.086,4.086,0,0,1,4.546,4.014V41.64a4.045,4.045,0,0,1-8.091,0V32.406a3.57,3.57,0,0,0-6.335-2.257A275.96,275.96,0,0,1,173.1,74.081a3.569,3.569,0,0,0,4.362,5.652A282.88,282.88,0,0,0,217.42,42.144a11.184,11.184,0,0,0,22.356-.5V11.184A11.191,11.191,0,0,0,235.994,2.8Z" transform="translate(-8.017 0)" fill="#fec63e"/>
        </g>
      </g>
    </g>
    <rect id="Retângulo_40" data-name="Retângulo 40" width="266.77" height="246.94" transform="translate(1336.241 899.997)" fill="none"/>
  </g>
</svg>
