<svg xmlns="http://www.w3.org/2000/svg" width="266.77" height="247.877" viewBox="0 0 266.77 247.877">
  <g id="pen" transform="translate(-826.615 -899.06)">
    <g id="Grupo_35" data-name="Grupo 35" transform="translate(1036.819 956.277)">
      <g id="Grupo_34" data-name="Grupo 34">
        <path id="Caminho_50" data-name="Caminho 50" d="M426.628,100a4.628,4.628,0,1,0,4.628,4.628A4.629,4.629,0,0,0,426.628,100Z" transform="translate(-422 -100)" fill="#fec63e"/>
      </g>
    </g>
    <g id="Grupo_37" data-name="Grupo 37" transform="translate(873.925 956.277)">
      <g id="Grupo_36" data-name="Grupo 36">
        <path id="Caminho_51" data-name="Caminho 51" d="M74.628,100a4.628,4.628,0,1,0,4.628,4.628A4.629,4.629,0,0,0,74.628,100Z" transform="translate(-70 -100)" fill="#fec63e"/>
      </g>
    </g>
    <g id="Grupo_39" data-name="Grupo 39" transform="translate(1047.166 971.621)">
      <g id="Grupo_38" data-name="Grupo 38">
        <path id="Caminho_52" data-name="Caminho 52" d="M471.032,173.346H465.5a105.118,105.118,0,0,0-12.469-37.81,4.628,4.628,0,0,0-8.086,4.5,95.911,95.911,0,0,1,11.223,33.308h-3.644a4.628,4.628,0,0,0-4.628,4.628v18.511a4.628,4.628,0,0,0,4.628,4.628h18.511a4.628,4.628,0,0,0,4.628-4.628V177.973A4.628,4.628,0,0,0,471.032,173.346ZM466.4,191.857h-9.255V182.6H466.4Z" transform="translate(-444.357 -133.158)" fill="#fec63e"/>
      </g>
    </g>
    <g id="Grupo_41" data-name="Grupo 41" transform="translate(909.096 956.277)">
      <g id="Grupo_40" data-name="Grupo 40">
        <path id="Caminho_53" data-name="Caminho 53" d="M247.8,189.139c0-.072,0-.143-.011-.215-.008-.1-.022-.195-.036-.291-.009-.059-.016-.118-.027-.178-.021-.113-.049-.224-.078-.335-.011-.042-.02-.084-.032-.126-.041-.138-.089-.274-.143-.407-.006-.014-.01-.03-.016-.044a4.573,4.573,0,0,0-.215-.45l-46.276-84.685a4.628,4.628,0,0,0-8.122,0l-46.276,84.685a4.569,4.569,0,0,0-.215.45c-.006.014-.01.029-.016.044-.054.133-.1.268-.143.407-.012.042-.021.084-.032.126-.03.111-.057.221-.078.335-.011.059-.018.118-.027.178-.014.1-.028.193-.036.291-.006.072-.008.143-.011.215s-.009.116-.009.175c0,.031,0,.06,0,.09,0,.073.006.145.011.217.006.092.013.184.025.274.008.064.019.127.029.191q.025.15.06.3c.013.055.027.11.043.165.029.106.062.209.1.311.01.029.017.059.028.088l16.689,44.226a13.883,13.883,0,0,0,1.523,25.536v25.323a4.628,4.628,0,0,0,4.628,4.628H224.67a4.628,4.628,0,0,0,4.628-4.628V260.718a13.884,13.884,0,0,0,1.521-25.537l16.692-44.232c.011-.029.018-.059.028-.088.036-.1.069-.206.1-.311.015-.055.029-.11.043-.165.023-.1.043-.2.06-.3.011-.064.021-.127.029-.191.012-.091.019-.182.025-.274,0-.073.01-.145.011-.217,0-.03,0-.06,0-.09C247.809,189.255,247.8,189.2,247.8,189.139Zm-50.9-4.452a4.628,4.628,0,1,1-4.628,4.628A4.633,4.633,0,0,1,196.9,184.686ZM220.043,281.4H173.766v-19.9h46.277Zm7.9-30.511a4.6,4.6,0,0,1-3.271,1.357H169.138a4.628,4.628,0,0,1,0-9.255h55.547a4.625,4.625,0,0,1,3.256,7.9ZM221.47,233.74H172.338l-15.018-39.8h11.818a4.628,4.628,0,0,0,0-9.255H158.43l33.847-61.94v53.48a13.883,13.883,0,1,0,9.255,0v-53.48l33.847,61.94H224.67a4.628,4.628,0,0,0,0,9.255h11.818Z" transform="translate(-146 -100)" fill="#fec63e"/>
      </g>
    </g>
    <g id="Grupo_43" data-name="Grupo 43" transform="translate(841.531 971.621)">
      <g id="Grupo_42" data-name="Grupo 42">
        <path id="Caminho_54" data-name="Caminho 54" d="M28.925,133.743a4.627,4.627,0,0,0-6.295,1.792,105.117,105.117,0,0,0-12.468,37.81H4.628A4.628,4.628,0,0,0,0,177.973v18.511a4.628,4.628,0,0,0,4.628,4.628H23.138a4.628,4.628,0,0,0,4.628-4.628V177.973a4.628,4.628,0,0,0-4.628-4.628H19.494a95.921,95.921,0,0,1,11.223-33.308A4.627,4.627,0,0,0,28.925,133.743ZM18.511,191.856H9.255V182.6h9.255Z" transform="translate(0 -133.157)" fill="#fec63e"/>
      </g>
    </g>
    <g id="Grupo_45" data-name="Grupo 45" transform="translate(841.531 910)">
      <g id="Grupo_44" data-name="Grupo 44">
        <path id="Caminho_55" data-name="Caminho 55" d="M223.054,0a13.905,13.905,0,0,0-13.087,9.255H132.352V4.628A4.628,4.628,0,0,0,127.724,0H109.213a4.628,4.628,0,0,0-4.628,4.628V9.255H26.97a13.883,13.883,0,1,0,0,9.255H73.494A102.454,102.454,0,0,0,47.121,34.284a4.628,4.628,0,1,0,5.965,7.077c13.278-11.193,32.226-19.188,51.5-21.869v3.647a4.628,4.628,0,0,0,4.628,4.628h18.511a4.628,4.628,0,0,0,4.628-4.628V19.491c19.273,2.681,38.221,10.676,51.5,21.869a4.627,4.627,0,0,0,5.965-7.076,102.454,102.454,0,0,0-26.373-15.773h46.524A13.882,13.882,0,1,0,223.054,0ZM13.883,18.511a4.628,4.628,0,1,1,4.628-4.628A4.633,4.633,0,0,1,13.883,18.511ZM123.1,13.883v4.628h-9.255V9.255H123.1Zm99.958,4.628a4.628,4.628,0,1,1,4.628-4.628A4.633,4.633,0,0,1,223.054,18.511Z" fill="#fec63e"/>
      </g>
    </g>
    <rect id="Retângulo_39" data-name="Retângulo 39" width="266.77" height="246.94" transform="translate(826.615 899.06)" fill="none"/>
  </g>
</svg>
