<svg id="Layer_1" data-name="Layer 1" xmlns="http://www.w3.org/2000/svg" viewBox="0 0 1000 509"><path d="M133.22,234.57l6.11,16.08-1.05.18q0-.09-4.84-5.16a33.43,33.43,0,0,0-25.21-10.57q-13.2,0-20.93,7.56a24.55,24.55,0,0,0-7.73,18.21,21.33,21.33,0,0,0,3.63,12.37q3.61,5.28,15.15,9.86,19.82,6.67,27.12,10t14.08,11.39q6.76,8,6.77,20.6a39.74,39.74,0,0,1-1.22,10,33.65,33.65,0,0,1-3.93,9.17,40.33,40.33,0,0,1-6.51,8,30.15,30.15,0,0,1-7.73,5.49q-3.93,1.88-12.41,2.84t-11.18,1H69V324.22h1.31q.18,18.6,8.74,25.94t26.65,7.35q16.42,0,24.94-7.78t8.52-18.7a20.65,20.65,0,0,0-3-11.31,27.93,27.93,0,0,0-8.3-8.22q-5.34-3.53-20.17-8.63T87,293.8a29.72,29.72,0,0,1-10-11.7,34.47,34.47,0,0,1-4-15.93A33.77,33.77,0,0,1,83.2,241.12Q93.46,231,110.15,231a72.42,72.42,0,0,1,14,1.49,68.53,68.53,0,0,1,8.39,1.92A1.48,1.48,0,0,0,133.22,234.57Z"/><path d="M277.12,361.61H252.74V341.78q-18.59,20.7-44.34,20.71-19.11,0-30.33-10.75T166.85,322V245c0-4.66-.55-7.61-1.66-8.87s-3.69-1.87-7.77-1.87v-1.32h34.16v1.32c-3.61,0-6.16.56-7.64,1.7s-2.23,3.83-2.23,8.08v70.68q0,22.2,10.38,31.67t23.65,9.49q20.85,0,37-18.79V250q0-11.44-2-13.58t-6.29-2.14h-1.22v-1.32h33.9v1.32c-4.2.23-6.83.93-7.91,2.09s-1.62,3.38-1.62,6.64V347.73q0,6.19.62,8.12A6,6,0,0,0,270.7,359q1.88,1.26,6.42,1.26Z"/><path d="M397,232.91h24.9v1.32q-5.68.17-7.86,2.4T411.84,246V363.18L309.18,253.87V349a23.92,23.92,0,0,0,.7,6.72,5.13,5.13,0,0,0,2,3c.88.52,3.06,1,6.55,1.57v1.31H293.72V360.3c4.42,0,7.18-.78,8.25-2.36s1.62-5.32,1.62-11.26V259.63q0-11.43-3.19-18.68t-14.72-6.72v-1.32h24.2l96.46,102.71V244.79q0-7.33-2.62-8.95a12.63,12.63,0,0,0-6.73-1.61Z"/><path d="M496.59,234.57l6.12,16.08-1,.18c0-.06-1.61-1.78-4.85-5.16a33.38,33.38,0,0,0-25.2-10.57q-13.2,0-20.93,7.56A24.55,24.55,0,0,0,443,260.87a21.4,21.4,0,0,0,3.62,12.37q3.63,5.28,15.15,9.86,19.81,6.67,27.12,10t14.08,11.39q6.78,8,6.78,20.6a40.21,40.21,0,0,1-1.22,10,33.65,33.65,0,0,1-3.93,9.17,40.33,40.33,0,0,1-6.51,8,30.36,30.36,0,0,1-7.74,5.49q-3.93,1.88-12.4,2.84t-11.19,1H432.38V324.22h1.31q.17,18.6,8.73,25.94t26.65,7.35q16.43,0,24.95-7.78t8.51-18.7a20.65,20.65,0,0,0-3-11.31,27.81,27.81,0,0,0-8.3-8.22q-5.33-3.53-20.17-8.63t-20.75-9.07a29.7,29.7,0,0,1-10-11.7,34.47,34.47,0,0,1-4-15.93,33.8,33.8,0,0,1,10.26-25.05q10.28-10.12,27-10.13a72.42,72.42,0,0,1,14,1.49,69.09,69.09,0,0,1,8.39,1.92A1.47,1.47,0,0,0,496.59,234.57Z"/><path d="M615.07,297.39H544.39v49.47c0,4.66.21,7.63.65,8.9a6.58,6.58,0,0,0,2.45,3.23q1.78,1.31,6.24,1.31v1.31H520.45V360.3q9.07.61,9.08-8.82V248q0-8.82-1.44-11.17t-7.64-2.62v-1.32h33.28v1.32q-5.51.35-7.42,2.09c-1.28,1.17-1.92,3.55-1.92,7.17v50.32h70.68v-46c0-5.25-.45-8.81-1.36-10.71s-3.42-2.83-7.55-2.83v-1.32H639v1.32a14,14,0,0,0-5.8.91,4.9,4.9,0,0,0-2.6,2.84q-.69,1.92-.69,9.78v98.75q0,7.59.69,9.47a6.44,6.44,0,0,0,2.43,3.1q1.73,1.21,6,1.22v1.31H606.16V360.3q5.33,0,7.12-2.18t1.79-11.78Z"/><path d="M686.54,232.91v1.32a13.28,13.28,0,0,0-5.64.78q-3.1,1.05-3.67,3.06t-.57,9.51v98.75q0,8,.66,9.82a5.87,5.87,0,0,0,2.53,3c1.26.79,3.48,1.18,6.69,1.18v1.31H652.2V360.3q6.46,0,8-2.49t1.57-11.3V248.72q0-9.16-1.75-12t-7.86-2.48v-1.32Z"/><path d="M805.1,232.91H830v1.32q-5.68.17-7.86,2.4T820,246V363.18L717.29,253.87V349a23.54,23.54,0,0,0,.7,6.72,5.13,5.13,0,0,0,2,3c.87.52,3.06,1,6.55,1.57v1.31H701.83V360.3c4.42,0,7.18-.78,8.25-2.36s1.62-5.32,1.62-11.26V259.63q0-11.43-3.19-18.68t-14.72-6.72v-1.32H718l96.46,102.71V244.79c0-4.89-.88-7.87-2.62-8.95a12.63,12.63,0,0,0-6.73-1.61Z"/><path d="M843,234.4v-1.49h80.9v17.74h-1.31Q920,240.78,918.2,239c-1.19-1.16-4.12-1.75-8.78-1.75H867V295h39.4q5.85,0,7.43-1.09a3.84,3.84,0,0,0,1.66-3.19h1.31V302.9h-1.31a4.49,4.49,0,0,0-2.05-3.41q-1.62-.87-6-.87H867v39.75q0,9,1.66,13a7.92,7.92,0,0,0,5.27,5,44.74,44.74,0,0,0,11,1h22.68q10.82,0,13.83-.74a10.17,10.17,0,0,0,5.1-2.95q2.1-2.2,3.23-9.68H931v17.65H843V360.3a14.55,14.55,0,0,0,6.77-1.7c1.54-1,2.32-3.45,2.32-7.47V247.23q0-7.06-1.23-9.95T843,234.4Z"/><path d="M738.7,212H735v-8.29a29.3,29.3,0,0,1-2.34,2.77,22.71,22.71,0,1,1,0-32.12,28,28,0,0,1,2.34,2.76V145.82h3.74ZM735,194.14v-7.36a18.62,18.62,0,1,0,0,7.36Z"/><path d="M749.38,188.38a15.31,15.31,0,0,0-.14,2.1,18.77,18.77,0,0,0,32.07,13.21,25.51,25.51,0,0,0,1.78-2l4,1.41a20.09,20.09,0,0,1-3,3.37,22.71,22.71,0,1,1,0-32.12,19.21,19.21,0,0,1,5.86,14Zm.7-3.8h35.68a17.59,17.59,0,0,0-4.45-7.39,18.75,18.75,0,0,0-26.59,0A19,19,0,0,0,750.08,184.58Z"/><path d="M806.83,190.2a30.27,30.27,0,0,1-6.56-4.4,9.78,9.78,0,0,1,6.89-16.67,9.07,9.07,0,0,1,6.69,2.67,8.13,8.13,0,0,1,2.58,5.9v.19l-3.23,1.31a8.17,8.17,0,0,0-2-4.73,5.42,5.42,0,0,0-4.07-1.59,6,6,0,0,0-4.26,10.3,25.56,25.56,0,0,0,4.35,3.18,33.89,33.89,0,0,1,7.54,5.11,12.06,12.06,0,1,1-17,17.06,10.82,10.82,0,0,1-3.52-7.75l3.7-.93a8.24,8.24,0,0,0,2.46,6.06,8.28,8.28,0,0,0,11.78,0,8.11,8.11,0,0,0,2.48-6,7.91,7.91,0,0,0-2.48-5.85A37.18,37.18,0,0,0,806.83,190.2Z"/><path d="M831.86,158.08a3.5,3.5,0,0,1,1.1,2.58,3.7,3.7,0,0,1-3.7,3.74,3.65,3.65,0,0,1-2.65-1.07,3.61,3.61,0,0,1-1.1-2.67,3.5,3.5,0,0,1,1.1-2.58,3.69,3.69,0,0,1,2.65-1.07A3.63,3.63,0,0,1,831.86,158.08Zm-.78,13.3V212h-3.69V171.38Z"/><path d="M880.15,204c-.72.87-1.46,1.71-2.25,2.53a22.66,22.66,0,1,1,0-32.12,26.77,26.77,0,0,1,2.35,2.76v-5.76H884v31.56a21.23,21.23,0,0,1-6.51,15.64,22.67,22.67,0,0,1-32.16,0,26.22,26.22,0,0,1-2.44-2.81l3.94-1.45a15.08,15.08,0,0,0,1.35,1.45,18.79,18.79,0,0,0,32-11.8Zm.05-17.37a18.34,18.34,0,0,0-5.1-9.41,18.7,18.7,0,1,0,5.1,17.23Z"/><path d="M895.74,180.46V212H892V171.38h3.74V174a16.18,16.18,0,0,1,11.8-5.05,15.6,15.6,0,0,1,16.34,15.87V212h-3.7V185.19a11.94,11.94,0,0,0-3.74-8.85,12.66,12.66,0,0,0-17.75,0A13.82,13.82,0,0,0,895.74,180.46Z"/></svg>