<svg xmlns="http://www.w3.org/2000/svg" width="1189" height="676.5" viewBox="0 0 1189 676.5">
  <g id="qualidade" transform="translate(-388 -2845.5)">
    <g id="qualidade_set" data-name="qualidade set">
      <g id="Componente_2_3" data-name="Componente 2 – 3" transform="translate(865.5 2849)">
        <text id="Qualidade-2" data-name="Qualidade" transform="translate(0 38)" fill="#484b4d" font-size="36" font-family="Poppins-Regular, Poppins"><tspan x="0" y="0">Qualidade</tspan></text>
        <line id="Linha_2" data-name="Linha 2" x2="65" transform="translate(62)" fill="none" stroke="#fec63e" stroke-linecap="round" stroke-width="7"/>
      </g>
      <g id="Grupo_4" data-name="Grupo 4" transform="translate(0 2)">
        <path id="Caminho_2" data-name="Caminho 2" d="M1140,2983.5h238.784v207.034" transform="translate(46.216 19.128)" fill="none" stroke="#d9e0e6" stroke-linecap="round" stroke-linejoin="round" stroke-width="5"/>
        <path id="Caminho_3" data-name="Caminho 3" d="M1378.784,2983.5H1140v207.034" transform="translate(-645 19.128)" fill="none" stroke="#d9e0e6" stroke-linecap="round" stroke-linejoin="round" stroke-width="6"/>
        <path id="Caminho_4" data-name="Caminho 4" d="M970,3058v117.176" transform="translate(-10 34.486)" fill="none" stroke="#d9e0e6" stroke-linecap="round" stroke-width="6"/>
      </g>
      <text id="Resultados_garantidos" data-name="Resultados
garantidos" transform="translate(503 3263)" fill="#484b4d" font-size="40" font-family="Poppins-Regular, Poppins"><tspan x="-110.28" y="0">Resultados</tspan><tspan font-family="Poppins-Bold, Poppins" font-weight="700"><tspan x="-114.28" y="42">garantidos</tspan></tspan></text>
      <text id="Profissionais_qualificados" data-name="Profissionais
qualificados" transform="translate(1448 3263)" fill="#484b4d" font-size="40" font-family="Poppins-Regular, Poppins"><tspan x="-123.62" y="0">Profissionais</tspan><tspan font-family="Poppins-Bold, Poppins" font-weight="700"><tspan x="-128.7" y="42">qualificados</tspan></tspan></text>
      <text id="Ferramentas_modernas" data-name="Ferramentas
modernas" transform="translate(960.5 3263)" fill="#484b4d" font-size="40" font-family="Poppins-Regular, Poppins"><tspan x="-127.96" y="0">Ferramentas</tspan><tspan font-family="Poppins-Bold, Poppins" font-weight="700"><tspan x="-106.6" y="42">modernas</tspan></tspan></text>
      <g id="Grupo_5" data-name="Grupo 5" transform="translate(-12 662)">
        <g id="Componente_1_6" data-name="Componente 1 – 6" transform="translate(848.25 2782)">
          <g id="Retângulo_1" data-name="Retângulo 1" fill="#fec63e" stroke="#fec63e" stroke-linejoin="round" stroke-width="7">
            <rect width="247.5" height="78" stroke="none"/>
            <rect x="3.5" y="3.5" width="240.5" height="71" fill="none"/>
          </g>
          <text id="Sobre" transform="translate(80.25 50)" fill="#484b4d" font-size="30" font-family="Poppins-Bold, Poppins" font-weight="700"><tspan x="0" y="0">Sobre</tspan></text>
        </g>
        <text id="Clique_e_saiba_mais_sobre_nós_" data-name="Clique e saiba mais sobre nós!" transform="translate(972 2755)" fill="#484b4d" font-size="36" font-family="Poppins-Regular, Poppins"><tspan x="-276.408" y="0">Clique e saiba mais sobre nós!</tspan></text>
      </g>
    </g>
    <g id="logo_preto_svg" data-name="logo preto svg" transform="translate(689.87 2795.982)">
      <path id="Caminho_21" data-name="Caminho 21" d="M98.965,232.666l2.851,7.5-.49.084q0-.042-2.258-2.408A15.6,15.6,0,0,0,87.3,232.913q-6.159,0-9.766,3.528a11.455,11.455,0,0,0-3.607,8.5,9.953,9.953,0,0,0,1.694,5.772q1.684,2.464,7.069,4.6,9.248,3.112,12.654,4.666a19.249,19.249,0,0,1,6.57,5.315,14.4,14.4,0,0,1,3.159,9.612,18.542,18.542,0,0,1-.569,4.666,15.7,15.7,0,0,1-1.834,4.279,18.819,18.819,0,0,1-3.038,3.733,14.068,14.068,0,0,1-3.607,2.562,19.349,19.349,0,0,1-5.791,1.325q-3.957.448-5.217.467H69V274.5h.611q.084,8.679,4.078,12.1t12.435,3.43q7.662,0,11.637-3.63a11.405,11.405,0,0,0,3.975-8.725,9.635,9.635,0,0,0-1.4-5.277,13.033,13.033,0,0,0-3.873-3.836,46.967,46.967,0,0,0-9.411-4.027A44.845,44.845,0,0,1,77.4,260.3a13.867,13.867,0,0,1-4.666-5.459,16.084,16.084,0,0,1-1.866-7.433,15.757,15.757,0,0,1,4.759-11.688Q80.413,231,88.2,231a33.789,33.789,0,0,1,6.532.7,31.969,31.969,0,0,1,3.915.9.691.691,0,0,0,.317.075Z" transform="translate(0 -45.435)"/>
      <path id="Caminho_22" data-name="Caminho 22" d="M213.272,292.978H201.9v-9.253q-8.674,9.659-20.689,9.663-8.917,0-14.152-5.016T161.82,274.5V238.567c0-2.174-.257-3.551-.775-4.139s-1.722-.873-3.626-.873v-.616h15.939v.616a6.008,6.008,0,0,0-3.565.793c-.691.532-1.041,1.787-1.041,3.77V271.1q0,10.359,4.843,14.777a15.957,15.957,0,0,0,11.035,4.428q9.729,0,17.264-8.767V240.9q0-5.338-.933-6.336a3.846,3.846,0,0,0-2.935-1h-.569v-.616h15.818v.616c-1.96.107-3.187.434-3.691.975a4.662,4.662,0,0,0-.756,3.1V286.5a15.387,15.387,0,0,0,.289,3.789,2.8,2.8,0,0,0,1.157,1.47,5.632,5.632,0,0,0,3,.588Z" transform="translate(-47.163 -46.47)"/>
      <path id="Caminho_23" data-name="Caminho 23" d="M337.622,232.91h11.618v.616a5.3,5.3,0,0,0-3.667,1.12q-1.017,1.04-1.027,4.372v54.677l-47.9-51v44.388a11.16,11.16,0,0,0,.327,3.136,2.394,2.394,0,0,0,.933,1.4,11.647,11.647,0,0,0,3.056.733v.611h-11.53v-.607c2.062,0,3.35-.364,3.849-1.1s.756-2.482.756-5.254V245.378a21.808,21.808,0,0,0-1.488-8.716q-1.489-3.383-6.868-3.136v-.616h11.292l45.009,47.925V238.453q0-3.42-1.222-4.176a5.893,5.893,0,0,0-3.14-.751Z" transform="translate(-115.576 -46.454)"/>
      <path id="Caminho_24" data-name="Caminho 24" d="M462.341,232.66l2.856,7.5-.467.084c0-.028-.751-.831-2.263-2.408a15.575,15.575,0,0,0-11.758-4.932q-6.159,0-9.766,3.528a11.455,11.455,0,0,0-3.607,8.5,9.985,9.985,0,0,0,1.689,5.772q1.694,2.464,7.069,4.6,9.243,3.112,12.654,4.666a19.191,19.191,0,0,1,6.57,5.315,14.353,14.353,0,0,1,3.164,9.612,18.761,18.761,0,0,1-.569,4.666,15.705,15.705,0,0,1-1.834,4.279,18.816,18.816,0,0,1-3.038,3.733,14.165,14.165,0,0,1-3.612,2.562,19.335,19.335,0,0,1-5.786,1.325q-3.952.448-5.221.467H432.38V274.491h.611q.079,8.679,4.073,12.1t12.435,3.43q7.666,0,11.642-3.63a11.391,11.391,0,0,0,3.971-8.725,9.635,9.635,0,0,0-1.4-5.277,12.976,12.976,0,0,0-3.873-3.835,46.793,46.793,0,0,0-9.411-4.027,45.525,45.525,0,0,1-9.682-4.232,13.858,13.858,0,0,1-4.666-5.459,16.083,16.083,0,0,1-1.866-7.433A15.771,15.771,0,0,1,439,235.717q4.8-4.722,12.6-4.727a33.791,33.791,0,0,1,6.532.7,32.242,32.242,0,0,1,3.915.9A.685.685,0,0,0,462.341,232.66Z" transform="translate(-193.826 -45.429)"/>
      <path id="Caminho_25" data-name="Caminho 25" d="M564.6,262.986H531.621v23.083a16.7,16.7,0,0,0,.3,4.153,3.071,3.071,0,0,0,1.143,1.507,5.113,5.113,0,0,0,2.912.611v.611H520.45v-.611q4.232.285,4.237-4.115V239.94q0-4.115-.672-5.212t-3.565-1.223v-.616h15.529v.616a5.9,5.9,0,0,0-3.462.975c-.6.546-.9,1.656-.9,3.346v23.48H564.6V239.842a13.132,13.132,0,0,0-.635-5c-.425-.887-1.6-1.321-3.523-1.321v-.616h15.323v.616a6.533,6.533,0,0,0-2.706.425,2.286,2.286,0,0,0-1.213,1.325,18.53,18.53,0,0,0-.322,4.563v46.077a17.462,17.462,0,0,0,.322,4.419,3.005,3.005,0,0,0,1.134,1.446,5.129,5.129,0,0,0,2.8.569v.611H560.443v-.621q2.487,0,3.322-1.017t.835-5.5Z" transform="translate(-240.802 -46.443)"/>
      <path id="Caminho_26" data-name="Caminho 26" d="M668.2,232.91v.616a6.2,6.2,0,0,0-2.632.364,2.359,2.359,0,0,0-1.712,1.428,21.736,21.736,0,0,0-.266,4.437v46.077a19.1,19.1,0,0,0,.308,4.582,2.739,2.739,0,0,0,1.18,1.4,6.283,6.283,0,0,0,3.122.551v.611H652.179v-.625q3.014,0,3.733-1.162t.733-5.273V240.287q0-4.274-.817-5.6t-3.668-1.157v-.616Z" transform="translate(-311.056 -46.454)"/>
      <path id="Caminho_27" data-name="Caminho 27" d="M745.728,232.91h11.618v.616a5.3,5.3,0,0,0-3.668,1.12q-1.017,1.04-1,4.372v54.677l-47.925-51v44.388a10.99,10.99,0,0,0,.327,3.136,2.394,2.394,0,0,0,.933,1.4,11.592,11.592,0,0,0,3.056.733v.611h-11.53v-.607c2.062,0,3.35-.364,3.849-1.1s.756-2.482.756-5.254V245.378a21.806,21.806,0,0,0-1.489-8.716q-1.489-3.383-6.868-3.136v-.616h11.3L750.1,280.835V238.453c0-2.282-.411-3.672-1.222-4.176a5.893,5.893,0,0,0-3.14-.751Z" transform="translate(-333.261 -46.454)"/>
      <path id="Caminho_28" data-name="Caminho 28" d="M843,233.605v-.7h37.748v8.278h-.611q-1.208-4.605-2.048-5.436c-.555-.541-1.922-.817-4.1-.817H854.2v26.946h18.384a7.294,7.294,0,0,0,3.467-.509,1.792,1.792,0,0,0,.775-1.488h.611v5.683h-.611a2.1,2.1,0,0,0-.956-1.591,6.586,6.586,0,0,0-2.8-.406H854.2v18.548a17.141,17.141,0,0,0,.775,6.066,3.7,3.7,0,0,0,2.459,2.333,20.876,20.876,0,0,0,5.133.467h10.583a35.743,35.743,0,0,0,6.453-.345,4.745,4.745,0,0,0,2.38-1.376q.98-1.027,1.507-4.517h.574v8.236H843v-.63a6.789,6.789,0,0,0,3.159-.793c.718-.467,1.083-1.61,1.083-3.486v-48.48a13.11,13.11,0,0,0-.574-4.643Q846.094,233.6,843,233.605Z" transform="translate(-412.849 -46.453)"/>
      <path id="Caminho_29" data-name="Caminho 29" d="M714.8,176.7h-1.726v-3.868a13.656,13.656,0,0,1-1.092,1.292,10.6,10.6,0,1,1,0-14.987,13.055,13.055,0,0,1,1.092,1.288v-14.6h1.745Zm-1.726-8.334v-3.434a8.688,8.688,0,1,0,0,3.434Z" transform="translate(-333.316 0)"/>
      <path id="Caminho_30" data-name="Caminho 30" d="M747.216,177.349a7.158,7.158,0,0,0-.065.98,8.758,8.758,0,0,0,14.964,6.164,11.908,11.908,0,0,0,.831-.933l1.866.658a9.37,9.37,0,0,1-1.4,1.572,10.6,10.6,0,1,1,0-14.987,8.964,8.964,0,0,1,2.734,6.532Zm.327-1.773h16.648a8.208,8.208,0,0,0-2.076-3.448,8.749,8.749,0,0,0-12.407,0,8.865,8.865,0,0,0-2.165,3.448Z" transform="translate(-360.749 -11.671)"/>
      <path id="Caminho_31" data-name="Caminho 31" d="M800.115,178.959a14.125,14.125,0,0,1-3.061-2.053,4.563,4.563,0,0,1,3.215-7.778,4.232,4.232,0,0,1,3.122,1.246,3.793,3.793,0,0,1,1.2,2.753v.089l-1.507.611a3.812,3.812,0,0,0-.933-2.207,2.529,2.529,0,0,0-1.9-.742,2.8,2.8,0,0,0-1.988,4.806,11.925,11.925,0,0,0,2.03,1.484,15.817,15.817,0,0,1,3.518,2.384,5.627,5.627,0,1,1-7.932,7.96,5.049,5.049,0,0,1-1.642-3.616l1.726-.434a3.887,3.887,0,0,0,6.644,2.828,3.784,3.784,0,0,0,1.157-2.8,3.691,3.691,0,0,0-1.157-2.73,17.355,17.355,0,0,0-2.5-1.8Z" transform="translate(-386.841 -12.431)"/>
      <path id="Caminho_32" data-name="Caminho 32" d="M828.473,157.509a1.634,1.634,0,0,1,.513,1.2,1.726,1.726,0,0,1-1.726,1.745,1.7,1.7,0,0,1-1.237-.5,1.685,1.685,0,0,1-.513-1.246,1.634,1.634,0,0,1,.513-1.2,1.722,1.722,0,0,1,1.237-.5A1.694,1.694,0,0,1,828.473,157.509Zm-.364,6.206v18.953h-1.722V163.715Z" transform="translate(-403.519 -5.969)"/>
      <path id="Caminho_33" data-name="Caminho 33" d="M858.336,184.7c-.336.406-.681.8-1.05,1.18a10.573,10.573,0,1,1,0-14.987,12.483,12.483,0,0,1,1.1,1.288V169.49h1.75v14.726a9.906,9.906,0,0,1-3.038,7.3,10.578,10.578,0,0,1-15.006,0,12.248,12.248,0,0,1-1.139-1.311l1.838-.677a7.022,7.022,0,0,0,.63.677A8.767,8.767,0,0,0,858.35,184.7Zm.023-8.1a8.558,8.558,0,0,0-2.38-4.391,8.726,8.726,0,1,0,2.38,8.04Z" transform="translate(-410.851 -11.729)"/>
      <path id="Caminho_34" data-name="Caminho 34" d="M893.745,174.311v14.717H892V170.074h1.745V171.3a7.549,7.549,0,0,1,5.506-2.356,7.279,7.279,0,0,1,7.624,7.405v12.682h-1.726v-12.51a5.571,5.571,0,0,0-1.745-4.129,5.907,5.907,0,0,0-8.282,0A6.447,6.447,0,0,0,893.745,174.311Z" transform="translate(-438.986 -12.328)"/>
    </g>
  </g>
</svg>
